<svg xmlns="http://www.w3.org/2000/svg" viewBox="0 0 512 512">
  <defs>
    <linearGradient id="bgGrad" x1="0%" y1="0%" x2="100%" y2="100%">
      <stop offset="0%" style="stop-color:#1a1a2e"/>
      <stop offset="100%" style="stop-color:#16213e"/>
    </linearGradient>
    <linearGradient id="foxGrad" x1="0%" y1="0%" x2="100%" y2="100%">
      <stop offset="0%" style="stop-color:#FF9500"/>
      <stop offset="100%" style="stop-color:#F57C00"/>
    </linearGradient>
  </defs>

  <!-- Background -->
  <rect width="512" height="512" rx="96" fill="url(#bgGrad)"/>

  <!-- Simplified Kyuubi fox for favicon -->
  <g fill="url(#foxGrad)" transform="translate(80, 60) scale(0.7)">
    <!-- Head -->
    <path d="M140 180 Q120 140 100 100 Q140 120 160 140 Q180 100 200 80 Q200 140 180 170 Q200 160 220 170 Q200 200 180 210 Q200 230 180 260 L160 240 Q140 260 140 280 Q120 260 130 230 Q110 240 100 220 Q130 210 140 180Z"/>

    <!-- Ear -->
    <path d="M155 145 Q140 100 160 70 Q175 110 175 150Z"/>

    <!-- Body -->
    <path d="M180 250 Q220 260 250 300 Q280 340 260 400 L200 380 Q180 340 180 300 Q160 340 150 380 L100 360 Q120 300 160 270 Q170 260 180 250Z"/>

    <!-- Tails (simplified for favicon) -->
    <path d="M240 280 Q200 240 180 200 Q200 220 230 230 Q210 260 240 280Z"/>
    <path d="M280 260 Q270 200 280 140 Q300 190 310 220 Q290 245 280 260Z"/>
    <path d="M320 250 Q340 180 370 120 Q375 185 370 235 Q345 255 320 250Z"/>
    <path d="M360 275 Q400 220 440 175 Q420 235 400 275 Q380 290 360 275Z"/>
    <path d="M385 320 Q435 305 475 295 Q445 340 405 355 Q390 340 385 320Z"/>
  </g>

  <!-- Circuit elements -->
  <g fill="none" stroke="#F57C00" stroke-width="4" transform="translate(80, 60) scale(0.7)">
    <path d="M150 400 L150 450 L100 450"/>
    <path d="M210 395 L210 460 L260 460"/>
    <path d="M250 380 L300 420 L300 470"/>
    <circle cx="100" cy="450" r="10" fill="#F57C00"/>
    <circle cx="260" cy="460" r="10" fill="#F57C00"/>
    <circle cx="300" cy="470" r="10" fill="#F57C00"/>
  </g>
</svg>
